<svg id="Calque_1" data-name="Calque 1" xmlns="http://www.w3.org/2000/svg" viewBox="0 0 492 278.06"><defs><style>.cls-1{fill:#fff;}</style></defs><path class="cls-1" d="M11.86,199.73a131.75,131.75,0,0,1,23.58-44.34A113.42,113.42,0,0,1,74.92,124.7q23.76-11.42,55.2-11.42t55,11.42a114,114,0,0,1,39.3,30.69A131.72,131.72,0,0,1,248,199.73a180.85,180.85,0,0,1,0,105.54,129.56,129.56,0,0,1-23.57,44.16,115.12,115.12,0,0,1-39.3,30.5q-23.56,11.42-55,11.41t-55.2-11.41a114.48,114.48,0,0,1-39.48-30.5,129.58,129.58,0,0,1-23.58-44.16,181.07,181.07,0,0,1,0-105.54Zm23.39,95.62a115,115,0,0,0,18,37.8,90.58,90.58,0,0,0,31.25,26.76Q103.54,370,130.12,370t45.47-10.1a91.13,91.13,0,0,0,31.06-26.76,115.22,115.22,0,0,0,18-37.8,161.89,161.89,0,0,0,0-85.89,115.5,115.5,0,0,0-18-37.61,91.13,91.13,0,0,0-31.06-26.76Q156.67,135,130.12,135t-45.66,10.1a90.58,90.58,0,0,0-31.25,26.76,115.29,115.29,0,0,0-18,37.61,161.89,161.89,0,0,0,0,85.89Z" transform="translate(-4 -113.28)"/><path class="cls-1" d="M403.57,118.9q25.07,0,42.66,7.3t28.63,19.27A74.24,74.24,0,0,1,491,172.79a102.11,102.11,0,0,1,0,63.43,73.88,73.88,0,0,1-16.09,27.51q-11.06,12-28.63,19.27t-42.66,7.3H341.82v95.81H283.06V118.9Zm-16.1,125.75a122.79,122.79,0,0,0,19.46-1.5,45.3,45.3,0,0,0,16.47-5.8,31.7,31.7,0,0,0,11.41-12.17q4.31-7.85,4.31-20.58T434.81,184a31.6,31.6,0,0,0-11.41-12.16,45.31,45.31,0,0,0-16.47-5.81,124,124,0,0,0-19.46-1.49H341.82v80.09Z" transform="translate(-4 -113.28)"/></svg>